<mxfile host="app.diagrams.net" modified="2023-11-14T20:33:27.323Z" agent="Mozilla/5.0 (Windows NT 10.0; Win64; x64) AppleWebKit/537.36 (KHTML, like Gecko) Chrome/119.0.0.0 Safari/537.36" etag="bQBMabLTdJb_GvbbSj11" version="22.1.1" type="device">
  <diagram name="Pagina-1" id="oYmw4FmQ7esu5DcY-_e0">
    <mxGraphModel dx="2261" dy="782" grid="1" gridSize="10" guides="1" tooltips="1" connect="1" arrows="1" fold="1" page="1" pageScale="1" pageWidth="827" pageHeight="1169" math="0" shadow="0">
      <root>
        <mxCell id="0" />
        <mxCell id="1" parent="0" />
        <mxCell id="Vn8NmuWEjuLYBDRYEsP--19" style="edgeStyle=orthogonalEdgeStyle;rounded=0;orthogonalLoop=1;jettySize=auto;html=1;exitX=0.5;exitY=0.5;exitDx=0;exitDy=0;exitPerimeter=0;entryX=1;entryY=0.5;entryDx=0;entryDy=0;" parent="1" source="Vn8NmuWEjuLYBDRYEsP--21" edge="1">
          <mxGeometry relative="1" as="geometry">
            <mxPoint x="250" y="351" as="targetPoint" />
          </mxGeometry>
        </mxCell>
        <mxCell id="Vn8NmuWEjuLYBDRYEsP--20" style="edgeStyle=orthogonalEdgeStyle;rounded=0;orthogonalLoop=1;jettySize=auto;html=1;exitX=0.5;exitY=0;exitDx=0;exitDy=0;exitPerimeter=0;entryX=0.5;entryY=1;entryDx=0;entryDy=0;" parent="1" source="Vn8NmuWEjuLYBDRYEsP--21" edge="1">
          <mxGeometry relative="1" as="geometry">
            <mxPoint x="325" y="281" as="targetPoint" />
          </mxGeometry>
        </mxCell>
        <mxCell id="Vn8NmuWEjuLYBDRYEsP--21" value="Clienti" style="shape=umlActor;verticalLabelPosition=bottom;verticalAlign=top;html=1;outlineConnect=0;" parent="1" vertex="1">
          <mxGeometry x="310" y="321" width="30" height="60" as="geometry" />
        </mxCell>
        <mxCell id="Vn8NmuWEjuLYBDRYEsP--22" style="edgeStyle=orthogonalEdgeStyle;rounded=0;orthogonalLoop=1;jettySize=auto;html=1;exitX=0.5;exitY=0.5;exitDx=0;exitDy=0;exitPerimeter=0;entryX=0.5;entryY=1;entryDx=0;entryDy=0;" parent="1" source="Vn8NmuWEjuLYBDRYEsP--26" edge="1">
          <mxGeometry relative="1" as="geometry">
            <Array as="points">
              <mxPoint x="360" y="311" />
              <mxPoint x="360" y="461" />
              <mxPoint x="190" y="461" />
            </Array>
            <mxPoint x="189.9999999999999" y="391" as="targetPoint" />
          </mxGeometry>
        </mxCell>
        <mxCell id="Vn8NmuWEjuLYBDRYEsP--23" style="edgeStyle=orthogonalEdgeStyle;rounded=0;orthogonalLoop=1;jettySize=auto;html=1;exitX=1;exitY=1;exitDx=0;exitDy=0;exitPerimeter=0;entryX=0;entryY=0.5;entryDx=0;entryDy=0;" parent="1" source="Vn8NmuWEjuLYBDRYEsP--26" edge="1">
          <mxGeometry relative="1" as="geometry">
            <mxPoint x="480" y="451" as="targetPoint" />
          </mxGeometry>
        </mxCell>
        <mxCell id="Vn8NmuWEjuLYBDRYEsP--24" style="edgeStyle=orthogonalEdgeStyle;rounded=0;orthogonalLoop=1;jettySize=auto;html=1;exitX=0.75;exitY=0.1;exitDx=0;exitDy=0;exitPerimeter=0;entryX=0;entryY=0.5;entryDx=0;entryDy=0;" parent="1" source="Vn8NmuWEjuLYBDRYEsP--26" target="Vn8NmuWEjuLYBDRYEsP--29" edge="1">
          <mxGeometry relative="1" as="geometry" />
        </mxCell>
        <mxCell id="Vn8NmuWEjuLYBDRYEsP--25" style="edgeStyle=orthogonalEdgeStyle;rounded=0;orthogonalLoop=1;jettySize=auto;html=1;exitX=1;exitY=1;exitDx=0;exitDy=0;exitPerimeter=0;entryX=0;entryY=0.5;entryDx=0;entryDy=0;" parent="1" source="Vn8NmuWEjuLYBDRYEsP--26" target="Vn8NmuWEjuLYBDRYEsP--37" edge="1">
          <mxGeometry relative="1" as="geometry" />
        </mxCell>
        <mxCell id="Vn8NmuWEjuLYBDRYEsP--26" value="Manager" style="shape=umlActor;verticalLabelPosition=bottom;verticalAlign=top;html=1;outlineConnect=0;" parent="1" vertex="1">
          <mxGeometry x="399" y="281" width="30" height="60" as="geometry" />
        </mxCell>
        <mxCell id="Vn8NmuWEjuLYBDRYEsP--27" value="Scegliere un veicolo" style="ellipse;whiteSpace=wrap;html=1;" parent="1" vertex="1">
          <mxGeometry x="130" y="310" width="120" height="80" as="geometry" />
        </mxCell>
        <mxCell id="Vn8NmuWEjuLYBDRYEsP--28" value="Include" style="edgeStyle=orthogonalEdgeStyle;rounded=0;orthogonalLoop=1;jettySize=auto;html=1;exitX=0;exitY=0;exitDx=0;exitDy=0;" parent="1" source="Vn8NmuWEjuLYBDRYEsP--29" edge="1">
          <mxGeometry relative="1" as="geometry">
            <mxPoint x="444" y="119" as="targetPoint" />
          </mxGeometry>
        </mxCell>
        <mxCell id="Vn8NmuWEjuLYBDRYEsP--29" value="Gestione Veicoli" style="ellipse;whiteSpace=wrap;html=1;" parent="1" vertex="1">
          <mxGeometry x="513" y="139" width="120" height="80" as="geometry" />
        </mxCell>
        <mxCell id="Vn8NmuWEjuLYBDRYEsP--32" value="Aggiunta Veicolo" style="ellipse;whiteSpace=wrap;html=1;" parent="1" vertex="1">
          <mxGeometry x="393" y="39" width="120" height="80" as="geometry" />
        </mxCell>
        <mxCell id="Vn8NmuWEjuLYBDRYEsP--33" value="Include" style="edgeStyle=orthogonalEdgeStyle;rounded=0;orthogonalLoop=1;jettySize=auto;html=1;exitX=1;exitY=0.5;exitDx=0;exitDy=0;entryX=0;entryY=0.5;entryDx=0;entryDy=0;" parent="1" edge="1">
          <mxGeometry relative="1" as="geometry">
            <mxPoint x="600" y="451" as="sourcePoint" />
            <mxPoint x="690" y="451" as="targetPoint" />
          </mxGeometry>
        </mxCell>
        <mxCell id="Vn8NmuWEjuLYBDRYEsP--34" value="GestioneUtenti" style="ellipse;whiteSpace=wrap;html=1;" parent="1" vertex="1">
          <mxGeometry x="484" y="410" width="120" height="80" as="geometry" />
        </mxCell>
        <mxCell id="Vn8NmuWEjuLYBDRYEsP--35" value="Gestione Richiami" style="ellipse;whiteSpace=wrap;html=1;" parent="1" vertex="1">
          <mxGeometry x="690" y="410" width="120" height="80" as="geometry" />
        </mxCell>
        <mxCell id="Vn8NmuWEjuLYBDRYEsP--36" value="Noleggiare" style="ellipse;whiteSpace=wrap;html=1;" parent="1" vertex="1">
          <mxGeometry x="90" y="10" width="120" height="80" as="geometry" />
        </mxCell>
        <mxCell id="Vn8NmuWEjuLYBDRYEsP--37" value="Gestione Manutenzione" style="ellipse;whiteSpace=wrap;html=1;" parent="1" vertex="1">
          <mxGeometry x="520" y="281" width="120" height="80" as="geometry" />
        </mxCell>
        <mxCell id="Vn8NmuWEjuLYBDRYEsP--38" value="Registrazione" style="ellipse;whiteSpace=wrap;html=1;" parent="1" vertex="1">
          <mxGeometry x="265" y="200" width="120" height="80" as="geometry" />
        </mxCell>
        <mxCell id="Vn8NmuWEjuLYBDRYEsP--39" value="Extend" style="edgeStyle=orthogonalEdgeStyle;rounded=0;orthogonalLoop=1;jettySize=auto;html=1;exitX=0.5;exitY=1;exitDx=0;exitDy=0;entryX=0.5;entryY=0;entryDx=0;entryDy=0;" parent="1" source="Vn8NmuWEjuLYBDRYEsP--40" target="Vn8NmuWEjuLYBDRYEsP--38" edge="1">
          <mxGeometry relative="1" as="geometry" />
        </mxCell>
        <mxCell id="Vn8NmuWEjuLYBDRYEsP--40" value="Login" style="ellipse;whiteSpace=wrap;html=1;" parent="1" vertex="1">
          <mxGeometry x="250" y="60" width="120" height="80" as="geometry" />
        </mxCell>
        <mxCell id="Vn8NmuWEjuLYBDRYEsP--41" value="Extend" style="edgeStyle=orthogonalEdgeStyle;rounded=0;orthogonalLoop=1;jettySize=auto;html=1;exitX=1;exitY=0.5;exitDx=0;exitDy=0;entryX=-0.008;entryY=0.388;entryDx=0;entryDy=0;entryPerimeter=0;" parent="1" source="Vn8NmuWEjuLYBDRYEsP--36" target="Vn8NmuWEjuLYBDRYEsP--40" edge="1">
          <mxGeometry relative="1" as="geometry" />
        </mxCell>
        <mxCell id="Vn8NmuWEjuLYBDRYEsP--42" style="edgeStyle=orthogonalEdgeStyle;rounded=0;orthogonalLoop=1;jettySize=auto;html=1;exitX=0.5;exitY=0;exitDx=0;exitDy=0;exitPerimeter=0;entryX=0.983;entryY=0.6;entryDx=0;entryDy=0;entryPerimeter=0;" parent="1" source="Vn8NmuWEjuLYBDRYEsP--26" edge="1">
          <mxGeometry relative="1" as="geometry">
            <mxPoint x="382.9599999999998" y="248.9999999999999" as="targetPoint" />
          </mxGeometry>
        </mxCell>
        <mxCell id="Vn8NmuWEjuLYBDRYEsP--43" value="Include" style="edgeStyle=orthogonalEdgeStyle;rounded=0;orthogonalLoop=1;jettySize=auto;html=1;exitX=0;exitY=0.5;exitDx=0;exitDy=0;entryX=0.583;entryY=-0.05;entryDx=0;entryDy=0;entryPerimeter=0;" parent="1" edge="1">
          <mxGeometry relative="1" as="geometry">
            <mxPoint x="265" y="241" as="sourcePoint" />
            <mxPoint x="199.95999999999992" y="307" as="targetPoint" />
          </mxGeometry>
        </mxCell>
        <mxCell id="Vn8NmuWEjuLYBDRYEsP--44" value="Cancellazione Veicolo" style="ellipse;whiteSpace=wrap;html=1;" parent="1" vertex="1">
          <mxGeometry x="544" y="22" width="120" height="80" as="geometry" />
        </mxCell>
        <mxCell id="Vn8NmuWEjuLYBDRYEsP--45" value="Modifica Prezzi" style="ellipse;whiteSpace=wrap;html=1;" parent="1" vertex="1">
          <mxGeometry x="684" y="59" width="120" height="80" as="geometry" />
        </mxCell>
        <mxCell id="Vn8NmuWEjuLYBDRYEsP--46" value="Include" style="edgeStyle=orthogonalEdgeStyle;rounded=0;orthogonalLoop=1;jettySize=auto;html=1;exitX=0.5;exitY=0;exitDx=0;exitDy=0;entryX=0.242;entryY=0.988;entryDx=0;entryDy=0;entryPerimeter=0;" parent="1" source="Vn8NmuWEjuLYBDRYEsP--29" target="Vn8NmuWEjuLYBDRYEsP--44" edge="1">
          <mxGeometry relative="1" as="geometry" />
        </mxCell>
        <mxCell id="Vn8NmuWEjuLYBDRYEsP--47" value="Include" style="edgeStyle=orthogonalEdgeStyle;rounded=0;orthogonalLoop=1;jettySize=auto;html=1;exitX=1;exitY=0.5;exitDx=0;exitDy=0;entryX=0.083;entryY=0.875;entryDx=0;entryDy=0;entryPerimeter=0;" parent="1" source="Vn8NmuWEjuLYBDRYEsP--29" target="Vn8NmuWEjuLYBDRYEsP--45" edge="1">
          <mxGeometry relative="1" as="geometry" />
        </mxCell>
        <mxCell id="Vn8NmuWEjuLYBDRYEsP--48" value="Modifica Noleggio" style="ellipse;whiteSpace=wrap;html=1;" parent="1" vertex="1">
          <mxGeometry x="-20" y="119" width="120" height="80" as="geometry" />
        </mxCell>
        <mxCell id="Vn8NmuWEjuLYBDRYEsP--49" value="Cancellazione Noleggio" style="ellipse;whiteSpace=wrap;html=1;" parent="1" vertex="1">
          <mxGeometry x="120" y="130" width="120" height="80" as="geometry" />
        </mxCell>
        <mxCell id="Vn8NmuWEjuLYBDRYEsP--50" value="Extend" style="edgeStyle=orthogonalEdgeStyle;rounded=0;orthogonalLoop=1;jettySize=auto;html=1;exitX=0.5;exitY=0;exitDx=0;exitDy=0;entryX=0;entryY=0.625;entryDx=0;entryDy=0;entryPerimeter=0;" parent="1" source="Vn8NmuWEjuLYBDRYEsP--48" target="Vn8NmuWEjuLYBDRYEsP--36" edge="1">
          <mxGeometry relative="1" as="geometry" />
        </mxCell>
        <mxCell id="Vn8NmuWEjuLYBDRYEsP--51" value="Extend" style="edgeStyle=orthogonalEdgeStyle;rounded=0;orthogonalLoop=1;jettySize=auto;html=1;exitX=0.5;exitY=0;exitDx=0;exitDy=0;entryX=0.661;entryY=1.002;entryDx=0;entryDy=0;entryPerimeter=0;" parent="1" source="Vn8NmuWEjuLYBDRYEsP--49" target="Vn8NmuWEjuLYBDRYEsP--36" edge="1">
          <mxGeometry relative="1" as="geometry" />
        </mxCell>
      </root>
    </mxGraphModel>
  </diagram>
</mxfile>
